<?xml version="1.0" ?><svg viewBox="0 0 48 48" xmlns="http://www.w3.org/2000/svg"><title/><g data-name="19-Communication" id="_19-Communication"><path d="M33,0H15A15,15,0,0,0,0,15v8A15,15,0,0,0,15,38h3v9a1,1,0,0,0,1.71.71L29.41,38H33A15,15,0,0,0,48,23V15A15,15,0,0,0,33,0ZM46,23A13,13,0,0,1,33,36H29a1,1,0,0,0-.71.29L20,44.59V37a1,1,0,0,0-1-1H15A13,13,0,0,1,2,23V15A13,13,0,0,1,15,2H33A13,13,0,0,1,46,15Z"/><rect height="2" width="14" x="12" y="11"/><rect height="2" width="24" x="12" y="18"/><rect height="2" width="24" x="12" y="25"/><rect height="2" width="2" x="28" y="11"/></g></svg>