<?xml version="1.0" encoding="UTF-8" standalone="no"?>
<!-- Created with Inkscape (http://www.inkscape.org/) -->

<svg
   xmlns:dc="http://purl.org/dc/elements/1.1/"
   xmlns:cc="http://creativecommons.org/ns#"
   xmlns:rdf="http://www.w3.org/1999/02/22-rdf-syntax-ns#"
   xmlns:svg="http://www.w3.org/2000/svg"
   xmlns="http://www.w3.org/2000/svg"
   xmlns:sodipodi="http://sodipodi.sourceforge.net/DTD/sodipodi-0.dtd"
   xmlns:inkscape="http://www.inkscape.org/namespaces/inkscape"
   width="297mm"
   height="210mm"
   viewBox="0 0 297 210"
   version="1.1"
   id="svg8"
   sodipodi:docname="collups.svg"
   inkscape:version="0.92.2 (5c3e80d, 2017-08-06)">
  <defs
     id="defs2" />
  <sodipodi:namedview
     id="base"
     pagecolor="#ffffff"
     bordercolor="#666666"
     borderopacity="1.0"
     inkscape:pageopacity="0.0"
     inkscape:pageshadow="2"
     inkscape:zoom="1"
     inkscape:cx="575.23121"
     inkscape:cy="543.30321"
     inkscape:document-units="mm"
     inkscape:current-layer="layer1"
     showgrid="false"
     inkscape:window-width="1920"
     inkscape:window-height="1138"
     inkscape:window-x="-8"
     inkscape:window-y="-8"
     inkscape:window-maximized="1" />
  <metadata
     id="metadata5">
    <rdf:RDF>
      <cc:Work
         rdf:about="">
        <dc:format>image/svg+xml</dc:format>
        <dc:type
           rdf:resource="http://purl.org/dc/dcmitype/StillImage" />
        <dc:title></dc:title>
      </cc:Work>
    </rdf:RDF>
  </metadata>
  <g
     inkscape:label="Ebene 1"
     inkscape:groupmode="layer"
     id="layer1"
     transform="translate(0,-87)">
    <path
       style="fill:#d40000;stroke:none;stroke-width:0.34305876"
       d="m 116.54982,193.42747 v -28.98846 h 4.28823 4.28824 v 28.98846 28.98847 h -4.28824 -4.28823 z"
       id="path30"
       inkscape:connector-curvature="0" />
    <path
       style="fill:#c83737;stroke:none;stroke-width:0.34305876"
       d="m 139.1917,193.42747 v -28.98846 h 4.1167 4.11671 v 28.98846 28.98847 h -4.11671 -4.1167 z"
       id="path32"
       inkscape:connector-curvature="0" />
    <path
       style="fill:#aad400;stroke:none;stroke-width:0.34305876"
       d="m 171.95381,222.95722 c -6.57915,-1.51158 -11.44126,-5.18271 -14.05145,-10.60954 -2.38529,-4.95921 -2.35865,-4.66677 -2.49704,-27.41091 l -0.12472,-20.49776 h 4.30566 4.30567 l 0.006,18.95399 c 0.006,20.64419 0.0883,21.71909 1.94056,25.50193 2.41749,4.93717 6.91331,7.39496 13.52693,7.39496 4.85074,0 7.95037,-1.18621 10.65488,-4.07755 1.97545,-2.11191 2.55192,-3.21761 3.39388,-6.50962 0.62183,-2.43136 0.66696,-3.91573 0.66696,-21.93577 v -19.32794 h 4.31055 4.31053 l -0.126,19.98317 c -0.12177,19.3123 -0.1513,20.07531 -0.87969,22.72764 -2.25785,8.22164 -7.23934,13.36324 -14.99115,15.47293 -2.83476,0.77151 -11.94981,0.97817 -14.75152,0.33447 z"
       id="path34"
       inkscape:connector-curvature="0" />
    <path
       style="fill:#aad400;stroke:none;stroke-width:0.34305876"
       d="M 209.72452,214.86864 V 186.0517 h 4.11671 4.11671 v 1.54377 c 0,0.84908 0.0584,1.54377 0.12997,1.54377 0.0715,0 1.02703,-0.54019 2.12345,-1.20041 4.21998,-2.54114 8.2327,-3.35056 12.79527,-2.58098 8.55368,1.44277 13.76825,8.4619 13.76825,18.53291 0,9.48664 -4.68829,16.3774 -12.6436,18.58333 -3.39392,0.94111 -8.79567,0.86204 -12.27505,-0.17971 -1.48367,-0.4442 -2.96774,-0.92384 -3.29793,-1.06587 -0.56489,-0.24297 -0.60036,0.41293 -0.60036,11.09941 v 11.35763 h -4.11671 -4.11671 z m 22.38035,1.25977 c 1.06144,-0.51932 2.42658,-1.50989 3.03363,-2.20128 4.25581,-4.84711 4.4059,-14.7593 0.29438,-19.44206 -1.34658,-1.53366 -3.72023,-2.79463 -5.86644,-3.11647 -2.98861,-0.44819 -7.59286,1.01172 -10.32204,3.27285 l -1.28646,1.06586 v 9.5175 9.51749 l 1.41653,0.79612 c 2.28753,1.28567 4.32847,1.71579 7.69375,1.62138 2.58312,-0.0724 3.432,-0.24629 5.03665,-1.03139 z"
       id="path36"
       inkscape:connector-curvature="0" />
    <path
       style="fill:#aad400;stroke:none;stroke-width:0.34305876;stroke-opacity:1"
       d="m 259.1943,223.10309 c -2.28877,-0.3356 -4.05422,-0.9139 -6.05572,-1.98362 l -1.62952,-0.87093 v -3.50801 -3.50802 l 2.20599,1.17137 c 3.42839,1.82049 5.91289,2.57214 8.60963,2.60474 2.85762,0.0345 4.11148,-0.47753 5.23987,-2.13998 0.65229,-0.96101 0.78144,-1.50652 0.64695,-2.73268 -0.2266,-2.0662 -1.69694,-3.37303 -5.40308,-4.80226 -7.99241,-3.0822 -10.58926,-5.48759 -11.15637,-10.33381 -0.32892,-2.81074 0.48895,-5.28625 2.47704,-7.49749 4.05648,-4.51178 11.41029,-5.72258 18.54451,-3.05332 l 1.82039,0.68109 v 3.21399 3.21398 l -2.48717,-0.87103 c -3.38633,-1.18589 -8.50532,-1.4973 -10.33568,-0.62874 -1.49865,0.71115 -2.27172,2.02395 -2.27172,3.85771 0,2.11169 1.76681,3.53636 6.67827,5.38504 5.8328,2.19546 8.64475,4.51181 9.64215,7.94274 1.02788,3.5358 0.0436,7.86506 -2.35836,10.37246 -2.84074,2.96554 -8.3965,4.33291 -14.16718,3.48677 z"
       id="path38"
       inkscape:connector-curvature="0" />
    <path
       style="fill:#d40000;stroke:none;stroke-width:0.24257918;stroke-opacity:1"
       d="m 139.33244,193.44818 v -28.98821 h 4.00256 4.00256 v 28.98821 28.98821 h -4.00256 -4.00256 z"
       id="path4536"
       inkscape:connector-curvature="0" />
    <path
       style="fill:#d40000;stroke:none;stroke-width:0.24257918;stroke-opacity:1"
       d="m 116.53,193.44818 v -28.98821 h 4.24514 4.24513 v 28.98821 28.98821 H 120.77514 116.53 Z"
       id="path4538"
       inkscape:connector-curvature="0" />
    <path
       style="fill:#d40000;stroke:none;stroke-width:0.24257916;stroke-opacity:1"
       d="M 87.740673,223.1295 C 86.81486,223.01079 85.15318,222.602 84.048055,222.22109 76.938947,219.77067 72.940141,214.6177 72.0663,206.78107 c -0.836137,-7.49856 2.203324,-14.72248 7.744399,-18.40619 3.687418,-2.45139 7.627226,-3.4281 13.009363,-3.22513 7.174171,0.27054 11.784168,2.55028 14.943508,7.38991 2.00534,3.07188 2.88099,6.56335 2.88419,11.50002 0.003,4.69345 -0.938,8.21449 -3.04077,11.3775 -3.86356,5.81162 -11.517206,8.78286 -19.866317,7.71232 z m 6.84572,-6.63885 c 3.778439,-0.89083 5.988987,-3.11701 7.234077,-7.28518 0.61264,-2.05095 0.61262,-8.11243 -3e-5,-10.17798 -0.63684,-2.14703 -1.54381,-3.65832 -2.987091,-4.97742 -1.562711,-1.42823 -3.279862,-2.11131 -5.845447,-2.32527 -7.7236,-0.64412 -12.409651,4.03709 -12.409651,12.39685 0,6.73767 3.006611,11.21761 8.300194,12.36756 2.015641,0.43786 3.854897,0.43833 5.707948,10e-4 z"
       id="path4540"
       inkscape:connector-curvature="0" />
    <path
       style="fill:#d40000;stroke:none;stroke-width:0.24257916;stroke-opacity:1"
       d="m 46.765516,223.15457 c -10.18625,-1.18898 -18.908151,-8.21481 -22.272408,-17.9413 -1.559019,-4.50733 -2.120445,-11.18807 -1.355636,-16.13151 1.96936,-12.72925 10.839918,-22.3125 22.912611,-24.75354 2.514028,-0.50832 9.37509,-0.38454 12.760152,0.23021 2.121585,0.38528 6.595826,1.54584 7.944468,2.06066 l 0.667094,0.25466 v 3.60426 c 0,1.98236 -0.05876,3.66303 -0.130589,3.73486 -0.07183,0.0719 -1.354457,-0.28214 -2.850302,-0.78656 -12.045272,-4.06195 -20.333444,-3.01036 -26.411038,3.35099 -2.781966,2.91184 -4.522254,6.15319 -5.564357,10.36382 -0.628675,2.54016 -0.874987,8.41255 -0.478212,11.40121 1.005923,7.57703 5.46333,13.65455 11.946743,16.289 5.50521,2.23698 14.104097,1.53267 21.232215,-1.73905 l 1.747013,-0.80185 0.146399,1.00979 c 0.08052,0.55537 0.113071,2.26394 0.07234,3.79684 l -0.07406,2.78709 -1.893055,0.81092 c -4.830693,2.06933 -12.714003,3.12312 -18.399353,2.4595 z"
       id="path4542"
       inkscape:connector-curvature="0" />
    <g
       transform="matrix(0.72783997,0,0,0.68134897,110.41809,140.029)"
       id="g10"
       style="fill:#d40000">
      <g
         id="g8"
         style="fill:#d40000">
        <ellipse
           style="fill:#d40000;stroke-width:1.06208313"
           cx="18.674"
           cy="5.7940001"
           id="circle2"
           rx="6.2022762"
           ry="6.1055245" />
        <path
           inkscape:connector-curvature="0"
           style="fill:#d40000"
           d="M 50.845,35.826007 C 50.672321,29.16351 49.735,22.456 48.449,15.873 c -1.014,-5.185 -7.492,-4.536 -9.478,-0.8 -0.097,0.124 -0.188,0.254 -0.271,0.4 -2.31,4.077 -5.138,7.728 -8.638,10.794 -3.499,-3.065 -6.327,-6.716 -8.639,-10.793 -0.094,-0.167 -0.198,-0.313 -0.308,-0.449 -2.022,-3.692 -8.454226,-4.297245 -9.461226,0.852755 -1.283,6.57 -2.9994379,13.289007 -3.2564379,19.979007 9.4904069,1.026494 2.0852279,0.41215 11.8725479,-0.0087 C 20.408884,32.210035 20.045,28.586 20.542,25.001 c 1.976,2.451 4.187,4.691 6.648,6.741 0.49,1.221 1.6,2.119 2.871,1.891 1.271,0.229 2.38,-0.67 2.871,-1.891 2.461,-2.05 4.672,-4.29 6.647,-6.742 0.496,3.561 -0.187116,7.213007 -0.04612,10.826007 7.812817,0.899818 1.80873,0.689428 11.312118,0 z"
           id="path4"
           sodipodi:nodetypes="cccccccccccccccccc" />
        <ellipse
           style="fill:#d40000;stroke-width:1.05740237"
           cx="41.450001"
           cy="5.7940001"
           id="circle6"
           rx="6.0856256"
           ry="6.1678295" />
      </g>
    </g>
    <path
       sodipodi:type="star"
       style="fill:#aad400;stroke:none;stroke-width:0.26458332;stroke-opacity:1"
       id="path4564"
       sodipodi:sides="3"
       sodipodi:cx="128.34282"
       sodipodi:cy="149.38704"
       sodipodi:r1="14.474455"
       sodipodi:r2="7.2372279"
       sodipodi:arg1="2.6244505"
       sodipodi:arg2="3.6716481"
       inkscape:flatsided="true"
       inkscape:rounded="0"
       inkscape:randomized="0"
       d="m 115.76111,156.54318 12.67516,-21.63029 12.39481,21.79216 z"
       inkscape:transform-center-x="0.059977655"
       inkscape:transform-center-y="-3.4196026"
       transform="matrix(1.2836146,0,0,0.95571051,33.709975,20.743011)" />
  </g>
</svg>
