<?xml version="1.0" ?><svg data-name="Layer 1" id="Layer_1" viewBox="0 0 32 32" xmlns="http://www.w3.org/2000/svg"><defs><style>.cls-1{fill:#f43b33;}</style></defs><title/><path class="cls-1" d="M11.26,25.3H11a9.42,9.42,0,0,0,11.4,0H11.26Z"/><path class="cls-1" d="M22,7.19h.31A9.42,9.42,0,0,0,11,7.2H22Z"/><path class="cls-1" d="M12.52,19.13a1.51,1.51,0,0,0-1.46,1.65,1.45,1.45,0,0,0,1.46,1.52A1.48,1.48,0,0,0,14,20.67,1.52,1.52,0,0,0,12.52,19.13Z"/><path class="cls-1" d="M6.56,16.25A11.25,11.25,0,0,1,11,7.2a5.85,5.85,0,0,0-5.26,6v6a5.85,5.85,0,0,0,5.26,6A11.23,11.23,0,0,1,6.56,16.25Z"/><path class="cls-1" d="M12.05,10.16a.94.94,0,0,0-.91,1v.32a1,1,0,0,0,.8,1,8.94,8.94,0,0,1,5.64,2.94,10.41,10.41,0,0,1,2.59,6.05.92.92,0,0,0,.89.84h.28a.94.94,0,0,0,.89-1C22,15.6,17,10.22,12.05,10.16Z"/><path class="cls-1" d="M22.35,7.2a11.25,11.25,0,0,1,4.39,9.05,11.23,11.23,0,0,1-4.39,9,5.85,5.85,0,0,0,5.26-6v-6A5.85,5.85,0,0,0,22.35,7.2Z"/><path class="cls-1" d="M12.13,14.4a.93.93,0,0,0-1,1v.36a1,1,0,0,0,.71.95,5.4,5.4,0,0,1,4.38,4.64c.1.84.38,1.09,1.09,1h.16a1,1,0,0,0,.84-1.12C17.77,17.51,15.16,14.69,12.13,14.4Z"/></svg>