<?xml version="1.0" ?><svg data-name="Layer 1" id="Layer_1" viewBox="0 0 32 32" xmlns="http://www.w3.org/2000/svg"><defs><style>.cls-1{fill:#f43b33;}</style></defs><title/><path class="cls-1" d="M22,7.06h.31a9.42,9.42,0,0,0-11.4,0H22Z"/><path class="cls-1" d="M11.26,25.17H11a9.42,9.42,0,0,0,11.4,0H11.26Z"/><path class="cls-1" d="M6.56,16.11a11.23,11.23,0,0,1,4.39-9,5.85,5.85,0,0,0-5.26,6v6a5.85,5.85,0,0,0,5.26,6A11.24,11.24,0,0,1,6.56,16.11Z"/><polygon class="cls-1" points="20.75 11.29 20.02 11.29 20.02 13.14 18.32 13.14 18.32 13.92 20.02 13.92 20.02 15.79 20.75 15.79 20.75 13.92 22.45 13.92 22.45 13.14 20.75 13.14 20.75 11.29"/><path class="cls-1" d="M16.51,18.09a10.13,10.13,0,0,0-1.87-.18,7.78,7.78,0,0,1-1.89-.19.59.59,0,0,1-.41-.62.66.66,0,0,1,.28-.54.85.85,0,0,1,.48-.21,3.31,3.31,0,0,1,.5.09,2.51,2.51,0,0,0,.51,0,2.77,2.77,0,0,0,2.07-.78A2.6,2.6,0,0,0,17,13.81a3,3,0,0,0-.71-1.94,1.1,1.1,0,0,1,.36-.72,2,2,0,0,1,1.06-.2V10l-.29,0a1.94,1.94,0,0,0-1.21.31,1.54,1.54,0,0,0-.51,1.09A3.29,3.29,0,0,0,14.14,11a2.81,2.81,0,0,0-2,.77,2.54,2.54,0,0,0-.82,2,2.72,2.72,0,0,0,1,2.13,1.53,1.53,0,0,0-1,1.42,1.54,1.54,0,0,0,.73,1.3,1.6,1.6,0,0,0-1.13,1.6,1.81,1.81,0,0,0,.81,1.55,4.55,4.55,0,0,0,2.57.57c2.48,0,3.72-.76,3.72-2.3a1.85,1.85,0,0,0-.42-1.23A1.89,1.89,0,0,0,16.51,18.09ZM13,12.44A1.64,1.64,0,0,1,14.16,12a1.54,1.54,0,0,1,1.16.51,2,2,0,0,1,0,2.57,1.71,1.71,0,0,1-2.39,0,1.77,1.77,0,0,1-.45-1.26A1.73,1.73,0,0,1,13,12.44ZM16.05,21a5,5,0,0,1-1.74.29A3.69,3.69,0,0,1,12.62,21,1,1,0,0,1,12,20a1.19,1.19,0,0,1,.81-1.1c.38.05,1,.09,1.78.11a14,14,0,0,1,1.42.09,1.17,1.17,0,0,1,.64.31.8.8,0,0,1,.23.61A1,1,0,0,1,16.05,21Z"/><path class="cls-1" d="M22.35,7.07a11.23,11.23,0,0,1,4.39,9,11.24,11.24,0,0,1-4.39,9.05,5.85,5.85,0,0,0,5.26-6v-6A5.85,5.85,0,0,0,22.35,7.07Z"/></svg>