<?xml version="1.0" ?><svg data-name="Layer 1" id="Layer_1" viewBox="0 0 32 32" xmlns="http://www.w3.org/2000/svg"><defs><style>.cls-1{fill:#f43b33;}</style></defs><title/><path class="cls-1" d="M21.36,8h.3A9.41,9.41,0,0,0,10.27,8H21.36Z"/><path class="cls-1" d="M10.57,26.07h-.3a9.41,9.41,0,0,0,11.39,0H10.57Z"/><path class="cls-1" d="M5.88,17a11.25,11.25,0,0,1,4.39-9A5.86,5.86,0,0,0,5,14v6a5.86,5.86,0,0,0,5.27,6A11.23,11.23,0,0,1,5.88,17Z"/><path class="cls-1" d="M21.66,8A11.25,11.25,0,0,1,26.05,17a11.23,11.23,0,0,1-4.39,9,5.85,5.85,0,0,0,5.27-6V14A5.85,5.85,0,0,0,21.66,8Z"/><path class="cls-1" d="M13.53,13.18V11a.59.59,0,0,1,.59-.59h.5a.58.58,0,0,1,.58.59v1.62a.58.58,0,0,0,.58.59h1.89a.58.58,0,0,1,.58.58v1a.58.58,0,0,1-.58.58H15.78a.59.59,0,0,0-.58.59v4a2,2,0,0,0,.1.66,1.34,1.34,0,0,0,.89.86,2.47,2.47,0,0,0,.82.13,4.44,4.44,0,0,0,.71-.06h0a.59.59,0,0,1,.67.58V23a.58.58,0,0,1-.47.57l-.18,0a7.64,7.64,0,0,1-1.06.09,4.43,4.43,0,0,1-1.39-.2,2.53,2.53,0,0,1-1-.57,2.26,2.26,0,0,1-.58-.89,3.44,3.44,0,0,1-.2-1.18v-6.2"/></svg>