<?xml version="1.0" ?><svg data-name="Layer 1" id="Layer_1" viewBox="0 0 32 32" xmlns="http://www.w3.org/2000/svg"><defs><style>.cls-1{fill:#f43b33;}</style></defs><title/><path class="cls-1" d="M22.53,7.56h.3a9.45,9.45,0,0,0-11.39,0H22.53Z"/><path class="cls-1" d="M11.74,25.67h-.3a9.45,9.45,0,0,0,11.39,0H11.74Z"/><path class="cls-1" d="M7.05,16.61a11.25,11.25,0,0,1,4.39-9,5.87,5.87,0,0,0-5.27,6.05v6a5.86,5.86,0,0,0,5.27,6.05A11.25,11.25,0,0,1,7.05,16.61Z"/><path class="cls-1" d="M22.83,7.56a11.25,11.25,0,0,1,4.39,9.05,11.25,11.25,0,0,1-4.39,9.05,5.86,5.86,0,0,0,5.27-6.05v-6A5.87,5.87,0,0,0,22.83,7.56Z"/><path class="cls-1" d="M18.66,17.84h0a3.38,3.38,0,0,1-.38.37,3.17,3.17,0,0,1-.51.32,3.81,3.81,0,0,1-.65.23,3.43,3.43,0,0,1-.74.08,2.84,2.84,0,0,1-1-.16,2.1,2.1,0,0,1-.76-.46,2.15,2.15,0,0,1-.5-.74,2.66,2.66,0,0,1-.18-1,2.38,2.38,0,0,1,.2-1,2.1,2.1,0,0,1,.55-.73,2.53,2.53,0,0,1,.86-.46,3.48,3.48,0,0,1,1.1-.16,5.09,5.09,0,0,1,1.06.1,4.66,4.66,0,0,1,.86.23h0V14a4.11,4.11,0,0,0,0-.53,1.24,1.24,0,0,0-.14-.41,1.53,1.53,0,0,0-.64-.62,2.49,2.49,0,0,0-1.19-.24,5,5,0,0,0-1.05.11,5.9,5.9,0,0,0-1,.28v-1a3,3,0,0,1,.43-.17,4.58,4.58,0,0,1,.53-.14,5.21,5.21,0,0,1,.59-.09c.21,0,.41,0,.62,0a3.75,3.75,0,0,1,1.82.39,2.43,2.43,0,0,1,1,1,2.35,2.35,0,0,1,.16.55,3.3,3.3,0,0,1,.05.65v4.89h-1Zm-.07-2.41a7.89,7.89,0,0,0-.78-.17,6,6,0,0,0-1-.1,1.89,1.89,0,0,0-1.19.33,1.14,1.14,0,0,0-.43,1,1.57,1.57,0,0,0,.1.6,1.08,1.08,0,0,0,.3.42,1.15,1.15,0,0,0,.45.24,1.63,1.63,0,0,0,.55.08,2.07,2.07,0,0,0,.71-.11,2.91,2.91,0,0,0,.59-.26,4.67,4.67,0,0,0,.44-.31c.12-.11.21-.18.26-.24Z"/><path class="cls-1" d="M10.92,19.67a16.89,16.89,0,0,0,3,1.18,12.1,12.1,0,0,0,3.09.51h.78l.39,0,.39,0A11.55,11.55,0,0,0,20.09,21,12.82,12.82,0,0,0,23,19.67a7.91,7.91,0,0,1-2.72,1.85,8.84,8.84,0,0,1-1.62.46,9.43,9.43,0,0,1-1.68.11,9.8,9.8,0,0,1-6.06-2.42Z"/><polygon class="cls-1" points="22.84 20.59 22.94 19.72 22.07 19.63 22.48 19.3 23.35 19.4 23.25 20.26 22.84 20.59"/></svg>