<?xml version="1.0" ?><svg data-name="Layer 1" id="Layer_1" viewBox="0 0 32 32" xmlns="http://www.w3.org/2000/svg"><defs><style>.cls-1{fill:#f43b33;}</style></defs><title/><path class="cls-1" d="M22.36,7.06h.3a9.41,9.41,0,0,0-11.39,0H22.36Z"/><path class="cls-1" d="M11.57,25.17h-.3a9.41,9.41,0,0,0,11.39,0H11.57Z"/><path class="cls-1" d="M6.88,16.11a11.23,11.23,0,0,1,4.39-9,5.85,5.85,0,0,0-5.27,6v6a5.85,5.85,0,0,0,5.27,6A11.24,11.24,0,0,1,6.88,16.11Z"/><path class="cls-1" d="M22.66,7.07a11.23,11.23,0,0,1,4.39,9,11.24,11.24,0,0,1-4.39,9.05,5.85,5.85,0,0,0,5.27-6v-6A5.85,5.85,0,0,0,22.66,7.07Z"/><path class="cls-1" d="M19.51,10.27a2.51,2.51,0,0,0-2.31,2.67A2.51,2.51,0,0,0,19.51,10.27Z"/><path class="cls-1" d="M20.49,16.43a2.91,2.91,0,0,1,1.25-2.26,3.3,3.3,0,0,0-2.32-.85,5.36,5.36,0,0,0-1.46.17,1.71,1.71,0,0,1-1.4,0,5.78,5.78,0,0,0-1.5-.21,3.07,3.07,0,0,0-3.21,3.36c0,2.17,2.09,5.32,3.93,5.32a2.29,2.29,0,0,0,.87-.17,1.71,1.71,0,0,1,1.22,0,2.27,2.27,0,0,0,.86.17c1.24,0,2.6-1.43,3.35-3A3.08,3.08,0,0,1,20.49,16.43Z"/></svg>