<?xml version="1.0" ?><svg data-name="Layer 1" id="Layer_1" viewBox="0 0 32 32" xmlns="http://www.w3.org/2000/svg"><defs><style>.cls-1{fill:#f43b33;}</style></defs><title/><path class="cls-1" d="M22,7.6h.31a9.42,9.42,0,0,0-11.4,0H22Z"/><path class="cls-1" d="M11.26,25.71H11a9.46,9.46,0,0,0,11.4,0H11.26Z"/><path class="cls-1" d="M22.35,7.61a11.25,11.25,0,0,1,4.39,9.05,11.27,11.27,0,0,1-4.39,9.05,5.87,5.87,0,0,0,5.26-6.05v-6A5.86,5.86,0,0,0,22.35,7.61Z"/><path class="cls-1" d="M6.56,16.66a11.25,11.25,0,0,1,4.39-9,5.86,5.86,0,0,0-5.26,6.05v6A5.87,5.87,0,0,0,11,25.71,11.27,11.27,0,0,1,6.56,16.66Z"/><path class="cls-1" d="M16.9,9.62a5.46,5.46,0,0,0-3.56,1.26,5,5,0,0,0-1.57,5.2,2.11,2.11,0,0,0,1.57,1.67c0-.15,0-.29-.05-.43a3.82,3.82,0,0,0-.21-1,4.17,4.17,0,0,1,1.43-5,4,4,0,0,1,2.27-.69A3.28,3.28,0,0,1,19.54,12c1.06,1.55.64,5-.76,6.24a1.83,1.83,0,0,1-1.19.52,1.6,1.6,0,0,1-.92-.32c-.72-.5-.64-1.27-.45-2l.15-.51a7.82,7.82,0,0,0,.35-1.77c0-.4-.3-1.07-.48-1.11l-.17,0a1.33,1.33,0,0,0-1,.45,4.86,4.86,0,0,0-.33,1.67c0,.15,0,.29,0,.44a5.51,5.51,0,0,0,0,.71,4.42,4.42,0,0,1,0,.89c-.07.42-.17.84-.27,1.25s-.23.93-.3,1.4c-.12.92-.21,1.88-.29,2.8l-.09,1.06.13,0a8.74,8.74,0,0,0,1.72-4.32l.1-.51.17.12a4,4,0,0,0,2.25.83,2.91,2.91,0,0,0,2.31-1.29,6.12,6.12,0,0,0,1.24-5.16A4.57,4.57,0,0,0,16.9,9.62Z"/></svg>