<?xml version="1.0" ?><svg data-name="Layer 1" id="Layer_1" viewBox="0 0 32 32" xmlns="http://www.w3.org/2000/svg"><defs><style>.cls-1{fill:#f43b33;}</style></defs><title/><path class="cls-1" d="M11.62,25.3h-.3a9.41,9.41,0,0,0,11.39,0H11.62Z"/><path class="cls-1" d="M22.41,7.19h.3a9.41,9.41,0,0,0-11.39,0H22.41Z"/><path class="cls-1" d="M6.93,16.25a11.25,11.25,0,0,1,4.39-9,5.85,5.85,0,0,0-5.27,6v6a5.85,5.85,0,0,0,5.27,6A11.23,11.23,0,0,1,6.93,16.25Z"/><path class="cls-1" d="M22.71,7.2a11.25,11.25,0,0,1,4.39,9.05,11.23,11.23,0,0,1-4.39,9,5.86,5.86,0,0,0,5.27-6v-6A5.86,5.86,0,0,0,22.71,7.2Z"/><path class="cls-1" d="M16.45,10a1.92,1.92,0,0,0-.86,1,5.21,5.21,0,0,0-.23,1.77v.71H14.09v2h1.27v7.44h2.29V15.4h1.71v-2H17.65v-.67a1.61,1.61,0,0,1,.21-1,.93.93,0,0,1,.72-.25,4.47,4.47,0,0,1,1.05.14L19.94,10A6,6,0,0,0,18,9.65,3,3,0,0,0,16.45,10Z"/></svg>