<?xml version="1.0" ?><svg data-name="Layer 1" id="Layer_1" viewBox="0 0 32 32" xmlns="http://www.w3.org/2000/svg"><defs><style>.cls-1{fill:#f43b33;}</style></defs><title/><path class="cls-1" d="M22,7.56h.31a9.46,9.46,0,0,0-11.4,0H22Z"/><path class="cls-1" d="M11.26,25.67H11a9.46,9.46,0,0,0,11.4,0H11.26Z"/><path class="cls-1" d="M18.8,20a.33.33,0,0,0-.15-.1l-.16,0a.54.54,0,0,0-.22.05.72.72,0,0,0-.21.12v1.05l.07.08.1.07a.43.43,0,0,0,.12.05.27.27,0,0,0,.13,0,.36.36,0,0,0,.21-.05.36.36,0,0,0,.15-.15.69.69,0,0,0,.09-.23,1.39,1.39,0,0,0,0-.3,1.2,1.2,0,0,0,0-.35A.55.55,0,0,0,18.8,20Z"/><path class="cls-1" d="M15.76,13.09a1.41,1.41,0,0,0,.07.47.91.91,0,0,0,.2.36.75.75,0,0,0,.32.23.93.93,0,0,0,.42.09,1,1,0,0,0,.42-.09.9.9,0,0,0,.32-.23,1.25,1.25,0,0,0,.2-.36,1.61,1.61,0,0,0,0-.94,1.2,1.2,0,0,0-.2-.37.94.94,0,0,0-.32-.23,1.12,1.12,0,0,0-.42-.08,1.08,1.08,0,0,0-.42.08.94.94,0,0,0-.32.23,1,1,0,0,0-.2.37A1.41,1.41,0,0,0,15.76,13.09Zm.54-.31a.65.65,0,0,1,.11-.22.36.36,0,0,1,.16-.14.42.42,0,0,1,.2,0,.45.45,0,0,1,.2,0,.43.43,0,0,1,.16.14.64.64,0,0,1,.1.22,1,1,0,0,1,0,.31.91.91,0,0,1,0,.3.7.7,0,0,1-.1.23.4.4,0,0,1-.16.13.42.42,0,0,1-.4,0,.4.4,0,0,1-.16-.13.7.7,0,0,1-.11-.23,1.32,1.32,0,0,1,0-.3A1.42,1.42,0,0,1,16.3,12.78Z"/><path class="cls-1" d="M18.3,13.82a.72.72,0,0,0,.3.3,1,1,0,0,0,.5.12,1.24,1.24,0,0,0,.53-.13.86.86,0,0,0,.18-.14.76.76,0,0,0,.12-.19,1,1,0,0,0,.08-.45V12h-.49v1.29a.62.62,0,0,1-.05.3.28.28,0,0,1-.14.16.41.41,0,0,1-.23.06.46.46,0,0,1-.21-.05.29.29,0,0,1-.14-.15.46.46,0,0,1-.05-.14,1,1,0,0,1,0-.19V12h-.5v1.34a1.12,1.12,0,0,0,0,.27A.72.72,0,0,0,18.3,13.82Z"/><polygon class="cls-1" points="14.32 14.18 14.83 14.18 14.83 12.96 15.88 11.16 15.32 11.16 14.58 12.46 14.57 12.46 13.83 11.16 13.27 11.16 14.32 12.96 14.32 14.18"/><path class="cls-1" d="M22.35,7.56a11.25,11.25,0,0,1,4.39,9.05,11.25,11.25,0,0,1-4.39,9.05,5.86,5.86,0,0,0,5.26-6.05v-6A5.87,5.87,0,0,0,22.35,7.56Z"/><path class="cls-1" d="M21,16.61H12.34a1.88,1.88,0,0,0-1.89,1.87v3.14a1.89,1.89,0,0,0,1.89,1.87H21a1.89,1.89,0,0,0,1.89-1.87V18.48A1.88,1.88,0,0,0,21,16.61Zm-5.8,2.48h-.9v2.55h-.5V19.09h-.9v-.47h2.3ZM17,20.79a1,1,0,0,1-.09.45.76.76,0,0,1-.12.19.65.65,0,0,1-.18.15.79.79,0,0,1-.23.09,1.29,1.29,0,0,1-.29,0,1.06,1.06,0,0,1-.5-.11.72.72,0,0,1-.3-.3.57.57,0,0,1-.08-.23,1.12,1.12,0,0,1,0-.27V19.46h.49v1.28a1.11,1.11,0,0,0,0,.19.57.57,0,0,0,0,.14.32.32,0,0,0,.14.14.4.4,0,0,0,.22.05.56.56,0,0,0,.23-.05.34.34,0,0,0,.14-.17.76.76,0,0,0,.05-.29V19.46H17Zm2.37.25a1.18,1.18,0,0,1-.2.37.86.86,0,0,1-.29.22.74.74,0,0,1-.32.07.66.66,0,0,1-.21,0l-.16-.08-.11-.09L18,21.41h0l0,.23h-.41c0-.06,0-.14,0-.24v-3h.49v1.21h0l.11-.07.12-.06.14,0,.16,0a.72.72,0,0,1,.33.07.69.69,0,0,1,.28.2.92.92,0,0,1,.2.35,1.49,1.49,0,0,1,.07.49A1.44,1.44,0,0,1,19.39,21Zm2.24-.33H20.31a.66.66,0,0,0,.06.26.39.39,0,0,0,.14.17.44.44,0,0,0,.19.1,1,1,0,0,0,.25,0l.29,0a1.92,1.92,0,0,0,.32-.09v.42a1.44,1.44,0,0,1-.29.09,1.84,1.84,0,0,1-.41,0,1.4,1.4,0,0,1-.41-.06.78.78,0,0,1-.33-.19,1,1,0,0,1-.23-.35,1.3,1.3,0,0,1-.08-.51,1.64,1.64,0,0,1,.07-.52,1.1,1.1,0,0,1,.22-.37.71.71,0,0,1,.3-.22.88.88,0,0,1,.71,0,.64.64,0,0,1,.27.19,1.06,1.06,0,0,1,.19.35,1.93,1.93,0,0,1,.06.51Z"/><path class="cls-1" d="M6.56,16.61a11.25,11.25,0,0,1,4.39-9,5.87,5.87,0,0,0-5.26,6.05v6A5.86,5.86,0,0,0,11,25.66,11.25,11.25,0,0,1,6.56,16.61Z"/><path class="cls-1" d="M21,20a.36.36,0,0,0-.28-.14.33.33,0,0,0-.17,0,.29.29,0,0,0-.12.1.38.38,0,0,0-.09.15,1.16,1.16,0,0,0,0,.18h.79a1.1,1.1,0,0,0,0-.18A.52.52,0,0,0,21,20Z"/></svg>